<?xml version="1.0" encoding="utf-8"?>
<!-- Generator: Adobe Illustrator 27.8.0, SVG Export Plug-In . SVG Version: 6.00 Build 0)  -->
<svg version="1.1" id="Capa_1" xmlns="http://www.w3.org/2000/svg" xmlns:xlink="http://www.w3.org/1999/xlink" x="0px" y="0px"
	 viewBox="0 0 44.45 44.45" style="enable-background:new 0 0 44.45 44.45;" xml:space="preserve">
<style type="text/css">
	.st0{fill:#5C82F2;}
</style>
<path class="st0" d="M31.94,21.66c1.04-4.48-0.74-9.4-2.6-13.36c-0.79-1.46-1.57-3.02-2.65-4.31c0.44-0.7,0.88-1.41,1.32-2.11
	c0,0-0.85-0.52-0.85-0.52c-0.38,0.63-0.77,1.27-1.15,1.9c-0.46-0.44-0.96-0.83-1.53-1.16c-2.1-0.89-2.41,1.32-2.02,2.8
	c0.21,0.96,0.49,1.9,0.8,2.83c-2.79,4.49-5.64,8.94-8.66,13.28c0,0-0.01,0.01-0.01,0.01c-1.24-0.26-2.48-0.21-3.39,0.8
	c-0.78,0.79-0.53,2.3,0.69,2.43c1.16,0.08,1.98-0.68,2.66-1.55c0.67,0.43,1.34,1.02,1.99,1.56c-1.31,0.65-2.47,1.68-3.36,3.06
	c-5.87,8.8,5.41,19.47,14.2,14.5C35.32,37.33,34.42,29.06,31.94,21.66z M31,19c-1.57-4.36-3.72-8.49-5.82-12.59
	c0.31-0.49,0.61-0.98,0.92-1.47C29.19,8.21,31.73,14.55,31,19z M24.68,5.42c-0.32-0.71-0.6-1.46-0.71-2.08
	c0.16,0.03,0.35,0.09,0.47,0.17c0.32,0.21,0.65,0.46,0.97,0.74C25.16,4.65,24.92,5.04,24.68,5.42C24.68,5.43,24.68,5.43,24.68,5.42z
	 M23.66,8.84c1.06,2.79,2.49,5.44,3.98,8.01c0.75,1.4,1.59,2.86,2.37,4.35l-14.22-0.24c0.76-1.08,1.49-2.18,2.22-3.28
	C19.93,14.76,21.8,11.8,23.66,8.84z M29.77,21.96c-2.91,3.92-8.79,1.63-12.51-0.11c-0.1-0.03-0.2-0.07-0.31-0.1L29.77,21.96z
	 M12.37,23.22c-0.8,0.24-0.74-0.51-0.24-0.84c0.5-0.3,1.02-0.29,1.54-0.12C13.31,22.69,12.9,23.05,12.37,23.22z M22.49,40.17
	c-3.81-0.49-7.42-3.73-7.64-7.62c-0.12-2.38,1.45-4.96,3.66-5.9c0.48-0.2,1.03-0.3,1.6-0.32c4.05,1.63,8.9,1.31,11.09-2.71
	c1.5,3.32,2.44,6.82,1.45,10.41C31.42,38.21,26.63,40.73,22.49,40.17z"/>
</svg>
