<?xml version="1.0" encoding="utf-8"?>
<!-- Generator: Adobe Illustrator 27.8.0, SVG Export Plug-In . SVG Version: 6.00 Build 0)  -->
<svg version="1.1" id="Capa_1" xmlns="http://www.w3.org/2000/svg" xmlns:xlink="http://www.w3.org/1999/xlink" x="0px" y="0px"
	 viewBox="0 0 100 100" style="enable-background:new 0 0 100 100;" xml:space="preserve">
<style type="text/css">
	.st0{fill:#5C82F2;}
	.st1{fill:none;stroke:#5C82F2;stroke-width:2;stroke-linecap:round;stroke-miterlimit:10;}
	.st2{fill:#31333A;}
</style>
<path class="st0" d="M-19.08-97.36c1.04-4.48-0.74-9.4-2.6-13.36c-0.79-1.46-1.57-3.02-2.65-4.31c0.44-0.7,0.88-1.41,1.32-2.11
	c0,0-0.85-0.52-0.85-0.52c-0.38,0.63-0.77,1.27-1.15,1.9c-0.46-0.44-0.96-0.83-1.53-1.16c-2.1-0.89-2.41,1.32-2.02,2.8
	c0.21,0.96,0.49,1.9,0.8,2.83c-2.79,4.49-5.64,8.94-8.66,13.28c0,0-0.01,0.01-0.01,0.01c-1.24-0.26-2.48-0.21-3.39,0.8
	c-0.78,0.79-0.53,2.3,0.69,2.43c1.16,0.08,1.98-0.68,2.66-1.55c0.67,0.43,1.34,1.02,1.99,1.56c-1.31,0.65-2.47,1.68-3.36,3.06
	c-5.87,8.8,5.41,19.47,14.2,14.5C-15.7-81.69-16.6-89.96-19.08-97.36z M-20.02-100.02c-1.57-4.36-3.72-8.49-5.82-12.59
	c0.31-0.49,0.61-0.98,0.92-1.47C-21.83-110.81-19.29-104.47-20.02-100.02z M-26.35-113.6c-0.32-0.71-0.6-1.46-0.71-2.08
	c0.16,0.03,0.35,0.09,0.47,0.17c0.32,0.21,0.65,0.46,0.97,0.74C-25.86-114.37-26.1-113.98-26.35-113.6
	C-26.34-113.59-26.34-113.6-26.35-113.6z M-27.36-110.18c1.06,2.79,2.49,5.44,3.98,8.01c0.75,1.4,1.59,2.86,2.37,4.35l-14.22-0.24
	c0.76-1.08,1.49-2.18,2.22-3.28C-31.09-104.26-29.22-107.22-27.36-110.18z M-21.25-97.07c-2.91,3.92-8.79,1.63-12.51-0.11
	c-0.1-0.03-0.2-0.07-0.31-0.1L-21.25-97.07z M-38.65-95.8c-0.8,0.24-0.74-0.51-0.24-0.84c0.5-0.3,1.02-0.29,1.54-0.12
	C-37.71-96.34-38.12-95.97-38.65-95.8z M-28.53-78.85c-3.81-0.49-7.42-3.73-7.64-7.62c-0.12-2.38,1.45-4.96,3.66-5.9
	c0.48-0.2,1.03-0.3,1.6-0.32c4.05,1.63,8.9,1.31,11.09-2.71c1.5,3.32,2.44,6.82,1.45,10.41C-19.6-80.81-24.39-78.29-28.53-78.85z"/>
<g>
	<line class="st1" x1="11.7" y1="-107.05" x2="44.7" y2="-107.05"/>
	<line class="st1" x1="11.7" y1="-96.8" x2="44.7" y2="-96.8"/>
	<line class="st1" x1="11.7" y1="-86.55" x2="44.7" y2="-86.55"/>
</g>
<g>
	<g>
		<g>
			<path class="st2" d="M14.66,2.87v44.62h10.82v5.02H9.25V2.87H14.66z"/>
			<path class="st2" d="M36.55,53.35c-2.38,0-4.3-0.9-5.74-2.7c-1.44-1.8-2.16-4.16-2.16-7.08V12.83c0-2.94,0.72-5.31,2.16-7.1
				c1.44-1.79,3.35-2.68,5.74-2.68c2.4,0,4.31,0.89,5.75,2.68c1.43,1.79,2.15,4.15,2.15,7.1v30.74c0,2.93-0.72,5.29-2.15,7.08
				C40.87,52.45,38.95,53.35,36.55,53.35z M36.55,48.33c1.14,0,2.05-0.44,2.72-1.31c0.67-0.87,1.01-2.02,1.01-3.45V12.83
				c0-1.43-0.34-2.58-1.01-3.45c-0.67-0.87-1.58-1.31-2.72-1.31s-2.05,0.44-2.72,1.31c-0.67,0.87-1.01,2.02-1.01,3.45v30.74
				c0,1.43,0.34,2.58,1.01,3.45C34.5,47.89,35.41,48.33,36.55,48.33z"/>
			<path class="st2" d="M55.38,2.87v44.62H66.2v5.02H49.97V2.87H55.38z"/>
			<path class="st2" d="M68.96,52.5l8.88-49.64h5.81l8.8,49.64H86.9l-1.54-7.35h-9.28l-1.57,7.35H68.96z M76.99,40.13h7.46
				l-4.1-30.26h0.8L76.99,40.13z"/>
		</g>
		<g>
			<path class="st2" d="M9.03,77.47V64.25h5.84v2.03h-3.65v4.63h3.14v2.03h-3.14v4.54H9.03z"/>
			<path class="st2" d="M23.22,64.25v2.03h-3.65v3.3h3.14v2.03h-3.14v3.83h3.65v2.03h-5.84V64.25H23.22z"/>
			<path class="st2" d="M26.08,77.47V64.25h3.51c1.03,0,1.85,0.29,2.46,0.87c0.61,0.58,0.91,1.35,0.91,2.3v2
				c0,0.62-0.13,1.17-0.4,1.64c-0.27,0.47-0.65,0.84-1.14,1.12l-0.15-0.64c0.54,0.18,0.95,0.46,1.25,0.83s0.44,0.81,0.44,1.33v3.77
				h-2.18V73.7c0-0.33-0.1-0.59-0.31-0.8c-0.21-0.2-0.5-0.3-0.87-0.3h-1.33v4.87H26.08z M28.26,70.57h1.33
				c0.37,0,0.66-0.1,0.87-0.31c0.21-0.21,0.31-0.49,0.31-0.83v-2c0-0.35-0.1-0.62-0.31-0.83c-0.21-0.21-0.5-0.31-0.87-0.31h-1.33
				V70.57z"/>
			<path class="st2" d="M36.24,77.47V64.25h1.69l3.65,9.3l-0.59,0.03v-9.32h2.04v13.22h-1.68l-3.65-9.31l0.59-0.03v9.33H36.24z"/>
			<path class="st2" d="M45.42,77.47l2.83-13.22h2.35l2.79,13.22h-2.24l-0.42-2.26h-2.65l-0.43,2.26H45.42z M48.43,73.19h1.96
				l-1.12-6.17h0.3L48.43,73.19z M48.63,63.19l1.16-3.03h2.19l-1.79,3.03H48.63z"/>
			<path class="st2" d="M55.79,77.47V64.25h1.69l3.65,9.3l-0.59,0.03v-9.32h2.04v13.22H60.9l-3.65-9.31l0.59-0.03v9.33H55.79z"/>
			<path class="st2" d="M66.09,77.47V64.25h3.42c1.06,0,1.9,0.3,2.52,0.89c0.63,0.6,0.94,1.38,0.94,2.37v6.7
				c0,0.98-0.31,1.76-0.94,2.36c-0.63,0.6-1.47,0.9-2.52,0.9H66.09z M68.27,75.44h1.23c0.4,0,0.71-0.11,0.94-0.34
				c0.23-0.23,0.34-0.52,0.34-0.89v-6.7c0-0.37-0.11-0.67-0.34-0.89c-0.23-0.23-0.54-0.34-0.94-0.34h-1.23V75.44z"/>
			<path class="st2" d="M82.03,64.25v2.03h-3.65v3.3h3.14v2.03h-3.14v3.83h3.65v2.03H76.2V64.25H82.03z"/>
			<path class="st2" d="M84.04,77.47l-0.01-1.5l5.01-10.54l0.58,0.85h-5.58v-2.03h6.95v1.49l-5.01,10.54l-0.58-0.84h5.59v2.03H84.04
				z"/>
		</g>
		<g>
			<path class="st2" d="M29.61,94.44v0.62c0,0.98-0.31,1.76-0.94,2.36c-0.63,0.6-1.47,0.9-2.52,0.9c-1.05,0-1.89-0.3-2.52-0.9
				c-0.63-0.6-0.94-1.39-0.94-2.36v-7.26c0-0.98,0.31-1.77,0.94-2.37c0.63-0.6,1.47-0.89,2.52-0.89c1.06,0,1.9,0.3,2.52,0.89
				c0.63,0.6,0.94,1.38,0.94,2.37v0.62h-2.18v-0.62c0-0.37-0.11-0.67-0.34-0.89c-0.23-0.23-0.54-0.34-0.94-0.34
				c-0.4,0-0.71,0.11-0.94,0.34c-0.23,0.23-0.34,0.52-0.34,0.89v7.26c0,0.37,0.11,0.67,0.34,0.89c0.23,0.23,0.54,0.34,0.94,0.34
				c0.4,0,0.71-0.11,0.94-0.34c0.23-0.23,0.34-0.52,0.34-0.89v-0.62H29.61z"/>
			<path class="st2" d="M35.62,98.31c-1.05,0-1.89-0.3-2.52-0.9c-0.63-0.6-0.94-1.39-0.94-2.36v-7.26c0-0.98,0.31-1.77,0.94-2.37
				c0.63-0.6,1.47-0.89,2.52-0.89c1.06,0,1.9,0.3,2.52,0.89c0.63,0.6,0.94,1.38,0.94,2.37v7.26c0,0.98-0.31,1.76-0.94,2.36
				C37.52,98.01,36.68,98.31,35.62,98.31z M35.62,96.29c0.4,0,0.71-0.11,0.94-0.34c0.23-0.23,0.34-0.52,0.34-0.89v-7.26
				c0-0.37-0.11-0.67-0.34-0.89c-0.23-0.23-0.54-0.34-0.94-0.34c-0.4,0-0.71,0.11-0.94,0.34c-0.23,0.23-0.34,0.52-0.34,0.89v7.26
				c0,0.37,0.11,0.67,0.34,0.89C34.91,96.17,35.22,96.29,35.62,96.29z"/>
			<path class="st2" d="M42.39,98.03V84.81h3.51c1.03,0,1.85,0.29,2.46,0.87c0.61,0.58,0.91,1.35,0.91,2.3v2
				c0,0.62-0.13,1.17-0.4,1.64c-0.27,0.47-0.65,0.84-1.14,1.12l-0.15-0.64c0.54,0.18,0.95,0.46,1.25,0.83s0.44,0.81,0.44,1.33v3.77
				h-2.18v-3.77c0-0.33-0.1-0.59-0.31-0.8c-0.21-0.2-0.5-0.3-0.87-0.3h-1.33v4.87H42.39z M44.57,91.13h1.33
				c0.37,0,0.66-0.1,0.87-0.31c0.21-0.21,0.31-0.49,0.31-0.83v-2c0-0.35-0.1-0.62-0.31-0.83c-0.21-0.21-0.5-0.31-0.87-0.31h-1.33
				V91.13z"/>
			<path class="st2" d="M52.55,98.03V84.81h3.51c1.03,0,1.85,0.29,2.46,0.87c0.61,0.58,0.91,1.35,0.91,2.3v2
				c0,0.62-0.13,1.17-0.4,1.64c-0.27,0.47-0.65,0.84-1.14,1.12l-0.15-0.64c0.54,0.18,0.95,0.46,1.25,0.83s0.44,0.81,0.44,1.33v3.77
				h-2.18v-3.77c0-0.33-0.1-0.59-0.31-0.8c-0.21-0.2-0.5-0.3-0.87-0.3h-1.33v4.87H52.55z M54.74,91.13h1.33
				c0.37,0,0.66-0.1,0.87-0.31c0.21-0.21,0.31-0.49,0.31-0.83v-2c0-0.35-0.1-0.62-0.31-0.83c-0.21-0.21-0.5-0.31-0.87-0.31h-1.33
				V91.13z"/>
			<path class="st2" d="M61.6,98.03l2.83-13.22h2.35l2.79,13.22h-2.24l-0.42-2.26h-2.65l-0.43,2.26H61.6z M64.61,93.75h1.96
				l-1.12-6.17h0.3L64.61,93.75z"/>
			<path class="st2" d="M74.15,84.81v11.19h3.27v2.03h-5.46V84.81H74.15z"/>
		</g>
	</g>
</g>
</svg>
